Coordinates
version=1
nRows=14
nColumns=63
inDegrees=yes

Units are S.I. units (second, meters, Newtons, ...)
If the header above contains a line with 'inDegrees', this indicates whether rotational values are in degrees (yes) or radians (no).

endheader
time	pelvis_tilt	pelvis_list	pelvis_rotation	pelvis_tx	pelvis_ty	pelvis_tz	hip_flexion_r	hip_adduction_r	hip_rotation_r	knee_angle_r	knee_angle_r_beta	ankle_angle_r	subtalar_angle_r	mtp_angle_r	hip_flexion_l	hip_adduction_l	hip_rotation_l	knee_angle_l	knee_angle_l_beta	ankle_angle_l	subtalar_angle_l	mtp_angle_l	L5_S1_Flex_Ext	L5_S1_Lat_Bending	L5_S1_axial_rotation	L4_L5_Flex_Ext	L4_L5_Lat_Bending	L4_L5_axial_rotation	L3_L4_Flex_Ext	L3_L4_Lat_Bending	L3_L4_axial_rotation	L2_L3_Flex_Ext	L2_L3_Lat_Bending	L2_L3_axial_rotation	L1_L2_Flex_Ext	L1_L2_Lat_Bending	L1_L2_axial_rotation	L1_T12_Flex_Ext	L1_T12_Lat_Bending	L1_T12_axial_rotation	Abs_r3	Abs_r2	Abs_r1	Abs_t1	Abs_t2	neck_flexion	neck_bending	neck_rotation	arm_flex_r	arm_add_r	arm_rot_r	elbow_flex_r	pro_sup_r	wrist_flex_r	wrist_dev_r	arm_flex_l	arm_add_l	arm_rot_l	elbow_flex_l	pro_sup_l	wrist_flex_l	wrist_dev_l
2.728814	-0.037625	-0.168768	99.402187	0.262398	0.619965	0.966878	3.688410	-0.257843	-3.501579	6.373711	0.111242	22.823678	5.057536	0.000000	4.809110	-1.144374	-9.614886	9.156627	0.159813	23.705088	14.653941	0.000000	0.307745	-0.618464	-1.073312	0.571513	-0.822557	-1.140394	0.505594	-1.503733	-1.140394	0.351721	-1.503733	-0.939148	0.285772	-1.261171	-0.872066	0.175845	-0.958000	-0.804984	2.198190	-6.996185	-5.969439	0.000000	0.000000	28.161650	2.805513	-22.905471	59.831791	-33.314537	2.496804	139.602095	88.073492	-21.259759	-16.988537	-4.589176	-18.376891	38.984403	23.507189	74.483726	-12.234522	-3.220326
2.745763	-0.112619	-0.093867	99.226500	0.262710	0.620322	0.966137	3.534268	-0.280930	-2.995093	6.278812	0.109586	22.581167	4.564442	0.000000	4.590402	-1.103922	-9.770776	9.020593	0.157439	23.625505	14.704627	0.000000	0.316481	-0.631037	-1.051591	0.587736	-0.839279	-1.117315	0.519946	-1.534304	-1.117315	0.361706	-1.534304	-0.920142	0.293884	-1.286811	-0.854417	0.180837	-0.977477	-0.788693	2.260590	-7.138419	-5.848632	0.000000	0.000000	28.185273	2.770919	-22.789478	59.979686	-33.523451	2.623227	139.719285	88.099233	-21.612361	-16.041702	-4.766043	-18.389167	38.814141	23.440538	74.077983	-12.242204	-3.076397
2.762712	-0.185333	-0.013740	99.049493	0.262972	0.620717	0.965445	3.378120	-0.307997	-2.542221	6.198486	0.108184	22.338316	4.129185	0.000000	4.360875	-1.056452	-9.910833	8.865836	0.154738	23.523182	14.728248	0.000000	0.323907	-0.642952	-1.041306	0.601528	-0.855126	-1.106388	0.532147	-1.563273	-1.106388	0.370194	-1.563273	-0.911143	0.300780	-1.311107	-0.846061	0.185081	-0.995932	-0.780980	2.313637	-7.273198	-5.791434	0.000000	0.000000	28.209852	2.748289	-22.578144	60.284912	-33.710034	2.789343	139.802310	88.146804	-21.491929	-14.513818	-4.991224	-18.398253	38.489517	23.414510	73.807403	-12.234968	-2.839518
2.779661	-0.254585	0.073812	98.894847	0.263170	0.621136	0.964809	3.209787	-0.330686	-2.091124	6.118768	0.106793	22.097393	3.651523	0.000000	4.124120	-1.001000	-9.962837	8.698484	0.151817	23.404587	14.666171	0.000000	0.329015	-0.653927	-1.048669	0.611013	-0.869723	-1.114210	0.540539	-1.589959	-1.114210	0.376031	-1.589959	-0.917585	0.305523	-1.333489	-0.852043	0.187999	-1.012933	-0.786501	2.350120	-7.397356	-5.832380	0.000000	0.000000	28.234937	2.770647	-22.227582	60.777394	-33.835012	2.961629	139.847884	88.200429	-20.751822	-12.354809	-5.259176	-18.413471	38.092707	23.431366	73.540810	-12.232667	-2.524279
2.796610	-0.324917	0.151677	98.761675	0.263303	0.621556	0.964204	3.049666	-0.362641	-1.702603	6.048420	0.105565	21.893238	3.227953	0.000000	3.903806	-0.939462	-10.024051	8.537969	0.149016	23.302907	14.653841	0.000000	0.333658	-0.665629	-1.060343	0.619636	-0.885286	-1.126615	0.548166	-1.618410	-1.126615	0.381337	-1.618410	-0.927801	0.309834	-1.357351	-0.861529	0.190652	-1.031059	-0.795258	2.383283	-7.529728	-5.897312	0.000000	0.000000	28.259147	2.771238	-21.880193	61.428728	-33.986650	3.016993	139.910598	88.268295	-19.293424	-9.544145	-5.553537	-18.430651	37.541345	23.488178	73.464813	-12.210585	-2.128844
2.813559	-0.386834	0.225696	98.630349	0.263406	0.621983	0.963609	2.890621	-0.387824	-1.328179	5.975429	0.104291	21.719447	2.826080	0.000000	3.684397	-0.876009	-10.012228	8.364390	0.145986	23.201842	14.559872	0.000000	0.336806	-0.677321	-1.068932	0.625483	-0.900837	-1.135740	0.553339	-1.646839	-1.135740	0.384936	-1.646839	-0.935316	0.312758	-1.381194	-0.868507	0.192451	-1.049171	-0.801699	2.405774	-7.661995	-5.945080	0.000000	0.000000	28.282531	2.733762	-21.591714	62.199514	-34.182444	2.898573	139.996483	88.326391	-17.183734	-6.275566	-5.836101	-18.452514	36.974342	23.549190	73.452216	-12.171140	-1.685720
2.830508	-0.448060	0.279432	98.482304	0.263524	0.622411	0.963035	2.764633	-0.419349	-0.971047	5.923096	0.103378	21.585603	2.479857	0.000000	3.491042	-0.808779	-10.040862	8.202385	0.143159	23.121597	14.489946	0.000000	0.340022	-0.691268	-1.058795	0.631456	-0.919386	-1.124970	0.558623	-1.680749	-1.124970	0.388612	-1.680749	-0.926446	0.315745	-1.409633	-0.860271	0.194289	-1.070774	-0.794096	2.428747	-7.819760	-5.888700	0.000000	0.000000	28.302023	2.599083	-21.562655	63.024259	-34.479052	2.558590	140.127221	88.402550	-14.617872	-2.843581	-6.033585	-18.499664	36.609416	23.569630	73.473809	-12.113396	-1.251583
2.847458	-0.495327	0.321772	98.329273	0.263643	0.622839	0.962459	2.656658	-0.444560	-0.714633	5.876802	0.102570	21.503637	2.296896	0.000000	3.314716	-0.758421	-10.118342	8.048781	0.140478	23.072295	14.483527	0.000000	0.342352	-0.705413	-1.032665	0.635782	-0.938199	-1.097207	0.562450	-1.715141	-1.097207	0.391274	-1.715141	-0.903582	0.317908	-1.438478	-0.839041	0.195620	-1.092685	-0.774499	2.445387	-7.979774	-5.743375	0.000000	0.000000	28.317087	2.403771	-21.737385	63.890644	-34.938312	2.212228	140.310356	88.513765	-12.402955	0.426649	-6.148329	-18.563164	36.452627	23.555868	73.473704	-12.046952	-0.825752
2.864407	-0.534089	0.354865	98.165130	0.263785	0.623275	0.961892	2.568417	-0.467986	-0.551391	5.839446	0.101918	21.472495	2.280771	0.000000	3.151714	-0.716542	-10.213006	7.900942	0.137897	23.033979	14.485829	0.000000	0.343334	-0.720216	-0.991997	0.637606	-0.957887	-1.053997	0.564064	-1.751133	-1.053997	0.392397	-1.751133	-0.867998	0.318820	-1.468664	-0.805998	0.196181	-1.115614	-0.743998	2.452404	-8.147226	-5.517191	0.000000	0.000000	28.326620	2.166662	-22.098331	64.763467	-35.526811	1.881586	140.534259	88.648393	-10.640758	3.294562	-6.177922	-18.644254	36.562498	23.496445	73.341101	-12.001619	-0.471431
2.881356	-0.572062	0.383168	97.951466	0.264021	0.623727	0.961327	2.498710	-0.495231	-0.440892	5.810153	0.101406	21.487437	2.437460	0.000000	2.987132	-0.677485	-10.364728	7.748393	0.135235	22.995747	14.492283	0.000000	0.343229	-0.735746	-0.933325	0.637411	-0.978542	-0.991658	0.563891	-1.788892	-0.991658	0.392277	-1.788892	-0.816660	0.318723	-1.500333	-0.758327	0.196121	-1.139670	-0.699994	2.451653	-8.322903	-5.190876	0.000000	0.000000	28.331209	1.936268	-22.556655	65.579934	-36.166833	1.487697	140.782785	88.734923	-9.008760	5.611508	-6.144312	-18.744266	36.880725	23.406077	73.115262	-11.968619	-0.221749
2.898305	-0.602290	0.405260	97.724055	0.264301	0.624174	0.960785	2.447821	-0.518371	-0.389980	5.788058	0.101021	21.539310	2.720345	0.000000	2.837324	-0.650323	-10.555365	7.609390	0.132809	22.964694	14.531833	0.000000	0.341749	-0.750737	-0.862000	0.634663	-0.998480	-0.915875	0.561460	-1.825341	-0.915875	0.390585	-1.825341	-0.754250	0.317349	-1.530902	-0.700375	0.195276	-1.162891	-0.646500	2.441082	-8.492483	-4.794185	0.000000	0.000000	28.331205	1.707492	-23.126342	66.333206	-36.921941	1.206571	141.119375	88.794449	-8.154916	7.424992	-6.054043	-18.855648	37.355260	23.304167	72.826699	-11.956824	-0.045610
2.915254	-0.622543	0.431856	97.464555	0.264646	0.624612	0.960286	2.407462	-0.533588	-0.367194	5.772522	0.100750	21.623535	3.110549	0.000000	2.689422	-0.636125	-10.778081	7.481534	0.130577	22.936631	14.560956	0.000000	0.338657	-0.763574	-0.782801	0.628920	-1.015553	-0.831726	0.556380	-1.856553	-0.831726	0.387051	-1.856553	-0.684951	0.314477	-1.557080	-0.636026	0.193509	-1.182776	-0.587101	2.418993	-8.637699	-4.353703	0.000000	0.000000	28.326423	1.515215	-23.669954	66.969309	-37.661092	0.965436	141.443392	88.801675	-7.575653	8.441731	-5.919051	-18.973462	38.060250	23.170268	72.323921	-11.976727	-0.030393
2.932203	-0.635455	0.459891	97.163893	0.265063	0.625007	0.959815	2.381176	-0.541787	-0.335952	5.766389	0.100642	21.736795	3.564940	0.000000	2.546606	-0.633781	-11.059151	7.370949	0.128647	22.917201	14.596051	0.000000	0.334512	-0.774194	-0.691861	0.621223	-1.029677	-0.735102	0.549570	-1.882374	-0.735102	0.382314	-1.882374	-0.605378	0.310628	-1.578735	-0.562137	0.191140	-1.199226	-0.518896	2.389388	-8.757832	-3.847923	0.000000	0.000000	28.319461	1.338519	-24.234838	67.467874	-38.423684	0.800014	141.775211	88.707869	-7.287771	8.778452	-5.776090	-19.072902	38.728473	23.027563	71.870275	-11.955098	-0.126577
2.949153	-0.642985	0.490647	96.867971	0.265505	0.625346	0.959409	2.362155	-0.546236	-0.314653	5.766111	0.100638	21.867588	4.047861	0.000000	2.416294	-0.639433	-11.334184	7.281528	0.127087	22.898147	14.622639	0.000000	0.329910	-0.782645	-0.604351	0.612675	-1.040917	-0.642123	0.542009	-1.902922	-0.642123	0.377054	-1.902922	-0.528808	0.306354	-1.595969	-0.491036	0.188510	-1.212317	-0.453264	2.356512	-8.853432	-3.361222	0.000000	0.000000	28.311480	1.203510	-24.726430	67.782463	-39.091814	0.709017	142.042861	88.584264	-7.173204	8.297929	-5.619100	-19.178425	39.547671	22.881823	71.228015	-11.962480	-0.339100
